<mxfile host="app.diagrams.net" agent="Mozilla/5.0 (Windows NT 10.0; Win64; x64) AppleWebKit/537.36 (KHTML, like Gecko) Chrome/137.0.0.0 Safari/537.36" version="27.1.6">
  <diagram name="Página-1" id="a1HuP-JINCdHW2MZsHFa">
    <mxGraphModel dx="780" dy="1755" grid="1" gridSize="10" guides="1" tooltips="1" connect="1" arrows="1" fold="1" page="1" pageScale="1" pageWidth="1169" pageHeight="827" math="0" shadow="0">
      <root>
        <mxCell id="0" />
        <mxCell id="1" parent="0" />
        <mxCell id="IBlnAb1Y5OI588Di0hFC-1" value="Cliente" style="swimlane;fontStyle=1;align=center;verticalAlign=top;childLayout=stackLayout;horizontal=1;startSize=26;horizontalStack=0;resizeParent=1;resizeParentMax=0;resizeLast=0;collapsible=1;marginBottom=0;whiteSpace=wrap;html=1;fillColor=light-dark(#A20025,#33FF99);fontColor=#ffffff;strokeColor=#6F0000;" vertex="1" parent="1">
          <mxGeometry x="10" y="223" width="190" height="190" as="geometry" />
        </mxCell>
        <mxCell id="IBlnAb1Y5OI588Di0hFC-2" value="Nome: String" style="text;strokeColor=none;fillColor=none;align=left;verticalAlign=top;spacingLeft=4;spacingRight=4;overflow=hidden;rotatable=0;points=[[0,0.5],[1,0.5]];portConstraint=eastwest;whiteSpace=wrap;html=1;" vertex="1" parent="IBlnAb1Y5OI588Di0hFC-1">
          <mxGeometry y="26" width="190" height="26" as="geometry" />
        </mxCell>
        <mxCell id="IBlnAb1Y5OI588Di0hFC-7" value="Tel: Int (ou) Interger" style="text;strokeColor=none;fillColor=none;align=left;verticalAlign=top;spacingLeft=4;spacingRight=4;overflow=hidden;rotatable=0;points=[[0,0.5],[1,0.5]];portConstraint=eastwest;whiteSpace=wrap;html=1;" vertex="1" parent="IBlnAb1Y5OI588Di0hFC-1">
          <mxGeometry y="52" width="190" height="26" as="geometry" />
        </mxCell>
        <mxCell id="IBlnAb1Y5OI588Di0hFC-6" value="Rua: String" style="text;strokeColor=none;fillColor=none;align=left;verticalAlign=top;spacingLeft=4;spacingRight=4;overflow=hidden;rotatable=0;points=[[0,0.5],[1,0.5]];portConstraint=eastwest;whiteSpace=wrap;html=1;" vertex="1" parent="IBlnAb1Y5OI588Di0hFC-1">
          <mxGeometry y="78" width="190" height="26" as="geometry" />
        </mxCell>
        <mxCell id="IBlnAb1Y5OI588Di0hFC-8" value="Nº Rua:&amp;nbsp;&amp;nbsp;Int (ou) Interger" style="text;strokeColor=none;fillColor=none;align=left;verticalAlign=top;spacingLeft=4;spacingRight=4;overflow=hidden;rotatable=0;points=[[0,0.5],[1,0.5]];portConstraint=eastwest;whiteSpace=wrap;html=1;" vertex="1" parent="IBlnAb1Y5OI588Di0hFC-1">
          <mxGeometry y="104" width="190" height="26" as="geometry" />
        </mxCell>
        <mxCell id="IBlnAb1Y5OI588Di0hFC-5" value="Forma de Pagamento: String" style="text;strokeColor=none;fillColor=none;align=left;verticalAlign=top;spacingLeft=4;spacingRight=4;overflow=hidden;rotatable=0;points=[[0,0.5],[1,0.5]];portConstraint=eastwest;whiteSpace=wrap;html=1;" vertex="1" parent="IBlnAb1Y5OI588Di0hFC-1">
          <mxGeometry y="130" width="190" height="26" as="geometry" />
        </mxCell>
        <mxCell id="IBlnAb1Y5OI588Di0hFC-3" value="" style="line;strokeWidth=1;fillColor=none;align=left;verticalAlign=middle;spacingTop=-1;spacingLeft=3;spacingRight=3;rotatable=0;labelPosition=right;points=[];portConstraint=eastwest;strokeColor=inherit;" vertex="1" parent="IBlnAb1Y5OI588Di0hFC-1">
          <mxGeometry y="156" width="190" height="8" as="geometry" />
        </mxCell>
        <mxCell id="IBlnAb1Y5OI588Di0hFC-4" value="+ method(type): type" style="text;strokeColor=none;fillColor=none;align=left;verticalAlign=top;spacingLeft=4;spacingRight=4;overflow=hidden;rotatable=0;points=[[0,0.5],[1,0.5]];portConstraint=eastwest;whiteSpace=wrap;html=1;" vertex="1" parent="IBlnAb1Y5OI588Di0hFC-1">
          <mxGeometry y="164" width="190" height="26" as="geometry" />
        </mxCell>
        <mxCell id="IBlnAb1Y5OI588Di0hFC-78" style="edgeStyle=orthogonalEdgeStyle;rounded=0;orthogonalLoop=1;jettySize=auto;html=1;exitX=0.5;exitY=0;exitDx=0;exitDy=0;endArrow=none;startFill=0;" edge="1" parent="1" source="IBlnAb1Y5OI588Di0hFC-9" target="IBlnAb1Y5OI588Di0hFC-22">
          <mxGeometry relative="1" as="geometry">
            <mxPoint x="444.8333333333335" y="90" as="targetPoint" />
          </mxGeometry>
        </mxCell>
        <mxCell id="IBlnAb1Y5OI588Di0hFC-79" value="Text" style="edgeLabel;html=1;align=center;verticalAlign=middle;resizable=0;points=[];" vertex="1" connectable="0" parent="IBlnAb1Y5OI588Di0hFC-78">
          <mxGeometry x="0.0872" relative="1" as="geometry">
            <mxPoint as="offset" />
          </mxGeometry>
        </mxCell>
        <mxCell id="IBlnAb1Y5OI588Di0hFC-9" value="Pedido" style="swimlane;fontStyle=1;align=center;verticalAlign=top;childLayout=stackLayout;horizontal=1;startSize=26;horizontalStack=0;resizeParent=1;resizeParentMax=0;resizeLast=0;collapsible=1;marginBottom=0;whiteSpace=wrap;html=1;fillColor=light-dark(#008A00,#99FFCC);fontColor=#ffffff;strokeColor=#005700;" vertex="1" parent="1">
          <mxGeometry x="320.73" y="110" width="190" height="270" as="geometry" />
        </mxCell>
        <mxCell id="IBlnAb1Y5OI588Di0hFC-102" value="Hora_pedido_realizado" style="text;strokeColor=none;fillColor=none;align=left;verticalAlign=top;spacingLeft=4;spacingRight=4;overflow=hidden;rotatable=0;points=[[0,0.5],[1,0.5]];portConstraint=eastwest;whiteSpace=wrap;html=1;" vertex="1" parent="IBlnAb1Y5OI588Di0hFC-9">
          <mxGeometry y="26" width="190" height="26" as="geometry" />
        </mxCell>
        <mxCell id="IBlnAb1Y5OI588Di0hFC-103" value="Hora_pedido_entrega" style="text;strokeColor=none;fillColor=none;align=left;verticalAlign=top;spacingLeft=4;spacingRight=4;overflow=hidden;rotatable=0;points=[[0,0.5],[1,0.5]];portConstraint=eastwest;whiteSpace=wrap;html=1;" vertex="1" parent="IBlnAb1Y5OI588Di0hFC-9">
          <mxGeometry y="52" width="190" height="28" as="geometry" />
        </mxCell>
        <mxCell id="IBlnAb1Y5OI588Di0hFC-11" value="Valor: Boolean" style="text;strokeColor=none;fillColor=none;align=left;verticalAlign=top;spacingLeft=4;spacingRight=4;overflow=hidden;rotatable=0;points=[[0,0.5],[1,0.5]];portConstraint=eastwest;whiteSpace=wrap;html=1;" vertex="1" parent="IBlnAb1Y5OI588Di0hFC-9">
          <mxGeometry y="80" width="190" height="26" as="geometry" />
        </mxCell>
        <mxCell id="IBlnAb1Y5OI588Di0hFC-10" value="Item: String" style="text;strokeColor=none;fillColor=none;align=left;verticalAlign=top;spacingLeft=4;spacingRight=4;overflow=hidden;rotatable=0;points=[[0,0.5],[1,0.5]];portConstraint=eastwest;whiteSpace=wrap;html=1;" vertex="1" parent="IBlnAb1Y5OI588Di0hFC-9">
          <mxGeometry y="106" width="190" height="26" as="geometry" />
        </mxCell>
        <mxCell id="IBlnAb1Y5OI588Di0hFC-12" value="Forma de Pagamento: String" style="text;strokeColor=none;fillColor=none;align=left;verticalAlign=top;spacingLeft=4;spacingRight=4;overflow=hidden;rotatable=0;points=[[0,0.5],[1,0.5]];portConstraint=eastwest;whiteSpace=wrap;html=1;" vertex="1" parent="IBlnAb1Y5OI588Di0hFC-9">
          <mxGeometry y="132" width="190" height="26" as="geometry" />
        </mxCell>
        <mxCell id="IBlnAb1Y5OI588Di0hFC-13" value="Tempo de entrega: Date" style="text;strokeColor=none;fillColor=none;align=left;verticalAlign=top;spacingLeft=4;spacingRight=4;overflow=hidden;rotatable=0;points=[[0,0.5],[1,0.5]];portConstraint=eastwest;whiteSpace=wrap;html=1;" vertex="1" parent="IBlnAb1Y5OI588Di0hFC-9">
          <mxGeometry y="158" width="190" height="26" as="geometry" />
        </mxCell>
        <mxCell id="IBlnAb1Y5OI588Di0hFC-14" value="Tel: Int (ou) Interger" style="text;strokeColor=none;fillColor=none;align=left;verticalAlign=top;spacingLeft=4;spacingRight=4;overflow=hidden;rotatable=0;points=[[0,0.5],[1,0.5]];portConstraint=eastwest;whiteSpace=wrap;html=1;" vertex="1" parent="IBlnAb1Y5OI588Di0hFC-9">
          <mxGeometry y="184" width="190" height="26" as="geometry" />
        </mxCell>
        <mxCell id="IBlnAb1Y5OI588Di0hFC-17" value="Endereço: String" style="text;strokeColor=none;fillColor=none;align=left;verticalAlign=top;spacingLeft=4;spacingRight=4;overflow=hidden;rotatable=0;points=[[0,0.5],[1,0.5]];portConstraint=eastwest;whiteSpace=wrap;html=1;" vertex="1" parent="IBlnAb1Y5OI588Di0hFC-9">
          <mxGeometry y="210" width="190" height="26" as="geometry" />
        </mxCell>
        <mxCell id="IBlnAb1Y5OI588Di0hFC-15" value="" style="line;strokeWidth=1;fillColor=none;align=left;verticalAlign=middle;spacingTop=-1;spacingLeft=3;spacingRight=3;rotatable=0;labelPosition=right;points=[];portConstraint=eastwest;strokeColor=inherit;" vertex="1" parent="IBlnAb1Y5OI588Di0hFC-9">
          <mxGeometry y="236" width="190" height="8" as="geometry" />
        </mxCell>
        <mxCell id="IBlnAb1Y5OI588Di0hFC-16" value="+ method(type): type" style="text;strokeColor=none;fillColor=none;align=left;verticalAlign=top;spacingLeft=4;spacingRight=4;overflow=hidden;rotatable=0;points=[[0,0.5],[1,0.5]];portConstraint=eastwest;whiteSpace=wrap;html=1;" vertex="1" parent="IBlnAb1Y5OI588Di0hFC-9">
          <mxGeometry y="244" width="190" height="26" as="geometry" />
        </mxCell>
        <mxCell id="IBlnAb1Y5OI588Di0hFC-19" value="*" style="text;html=1;align=center;verticalAlign=middle;resizable=0;points=[];autosize=1;strokeColor=none;fillColor=none;" vertex="1" parent="1">
          <mxGeometry x="320" y="282" width="30" height="30" as="geometry" />
        </mxCell>
        <mxCell id="IBlnAb1Y5OI588Di0hFC-20" value="Efetua / Realiza" style="endArrow=none;endFill=1;html=1;edgeStyle=orthogonalEdgeStyle;align=left;verticalAlign=top;rounded=0;entryX=0;entryY=0.5;entryDx=0;entryDy=0;exitX=1;exitY=0.5;exitDx=0;exitDy=0;startFill=0;" edge="1" parent="1" target="IBlnAb1Y5OI588Di0hFC-12">
          <mxGeometry x="-1" relative="1" as="geometry">
            <mxPoint x="230" y="120" as="sourcePoint" />
            <mxPoint x="390" y="120" as="targetPoint" />
            <mxPoint as="offset" />
          </mxGeometry>
        </mxCell>
        <mxCell id="IBlnAb1Y5OI588Di0hFC-21" value="1" style="edgeLabel;resizable=0;html=1;align=left;verticalAlign=bottom;" connectable="0" vertex="1" parent="IBlnAb1Y5OI588Di0hFC-20">
          <mxGeometry x="-1" relative="1" as="geometry">
            <mxPoint x="10" y="-13" as="offset" />
          </mxGeometry>
        </mxCell>
        <mxCell id="IBlnAb1Y5OI588Di0hFC-80" value="1" style="edgeLabel;resizable=0;html=1;align=left;verticalAlign=bottom;" connectable="0" vertex="1" parent="IBlnAb1Y5OI588Di0hFC-20">
          <mxGeometry x="-1" relative="1" as="geometry">
            <mxPoint x="240" y="-151" as="offset" />
          </mxGeometry>
        </mxCell>
        <mxCell id="IBlnAb1Y5OI588Di0hFC-22" value="Pizzaiolo" style="swimlane;fontStyle=1;align=center;verticalAlign=top;childLayout=stackLayout;horizontal=1;startSize=26;horizontalStack=0;resizeParent=1;resizeParentMax=0;resizeLast=0;collapsible=1;marginBottom=0;whiteSpace=wrap;html=1;fillColor=light-dark(#008A00,#CCFFE6);fontColor=#ffffff;strokeColor=#005700;" vertex="1" parent="1">
          <mxGeometry x="10" y="90" width="190" height="86" as="geometry" />
        </mxCell>
        <mxCell id="IBlnAb1Y5OI588Di0hFC-23" value="Nome: String" style="text;strokeColor=none;fillColor=none;align=left;verticalAlign=top;spacingLeft=4;spacingRight=4;overflow=hidden;rotatable=0;points=[[0,0.5],[1,0.5]];portConstraint=eastwest;whiteSpace=wrap;html=1;" vertex="1" parent="IBlnAb1Y5OI588Di0hFC-22">
          <mxGeometry y="26" width="190" height="26" as="geometry" />
        </mxCell>
        <mxCell id="IBlnAb1Y5OI588Di0hFC-28" value="" style="line;strokeWidth=1;fillColor=none;align=left;verticalAlign=middle;spacingTop=-1;spacingLeft=3;spacingRight=3;rotatable=0;labelPosition=right;points=[];portConstraint=eastwest;strokeColor=inherit;" vertex="1" parent="IBlnAb1Y5OI588Di0hFC-22">
          <mxGeometry y="52" width="190" height="8" as="geometry" />
        </mxCell>
        <mxCell id="IBlnAb1Y5OI588Di0hFC-29" value="+ method(type): type" style="text;strokeColor=none;fillColor=none;align=left;verticalAlign=top;spacingLeft=4;spacingRight=4;overflow=hidden;rotatable=0;points=[[0,0.5],[1,0.5]];portConstraint=eastwest;whiteSpace=wrap;html=1;" vertex="1" parent="IBlnAb1Y5OI588Di0hFC-22">
          <mxGeometry y="60" width="190" height="26" as="geometry" />
        </mxCell>
        <mxCell id="IBlnAb1Y5OI588Di0hFC-31" value="Motoboy&lt;div&gt;&lt;br&gt;&lt;/div&gt;" style="swimlane;fontStyle=1;align=center;verticalAlign=top;childLayout=stackLayout;horizontal=1;startSize=26;horizontalStack=0;resizeParent=1;resizeParentMax=0;resizeLast=0;collapsible=1;marginBottom=0;whiteSpace=wrap;html=1;fillColor=light-dark(#008A00,#CCFFE6);fontColor=#ffffff;strokeColor=#005700;" vertex="1" parent="1">
          <mxGeometry x="328.73" y="490" width="190" height="112" as="geometry" />
        </mxCell>
        <mxCell id="IBlnAb1Y5OI588Di0hFC-32" value="Nome: String" style="text;strokeColor=none;fillColor=none;align=left;verticalAlign=top;spacingLeft=4;spacingRight=4;overflow=hidden;rotatable=0;points=[[0,0.5],[1,0.5]];portConstraint=eastwest;whiteSpace=wrap;html=1;" vertex="1" parent="IBlnAb1Y5OI588Di0hFC-31">
          <mxGeometry y="26" width="190" height="26" as="geometry" />
        </mxCell>
        <mxCell id="IBlnAb1Y5OI588Di0hFC-108" value="Celular: type" style="text;strokeColor=none;fillColor=none;align=left;verticalAlign=top;spacingLeft=4;spacingRight=4;overflow=hidden;rotatable=0;points=[[0,0.5],[1,0.5]];portConstraint=eastwest;whiteSpace=wrap;html=1;" vertex="1" parent="IBlnAb1Y5OI588Di0hFC-31">
          <mxGeometry y="52" width="190" height="26" as="geometry" />
        </mxCell>
        <mxCell id="IBlnAb1Y5OI588Di0hFC-33" value="" style="line;strokeWidth=1;fillColor=none;align=left;verticalAlign=middle;spacingTop=-1;spacingLeft=3;spacingRight=3;rotatable=0;labelPosition=right;points=[];portConstraint=eastwest;strokeColor=inherit;" vertex="1" parent="IBlnAb1Y5OI588Di0hFC-31">
          <mxGeometry y="78" width="190" height="8" as="geometry" />
        </mxCell>
        <mxCell id="IBlnAb1Y5OI588Di0hFC-34" value="+ method(type): type" style="text;strokeColor=none;fillColor=none;align=left;verticalAlign=top;spacingLeft=4;spacingRight=4;overflow=hidden;rotatable=0;points=[[0,0.5],[1,0.5]];portConstraint=eastwest;whiteSpace=wrap;html=1;" vertex="1" parent="IBlnAb1Y5OI588Di0hFC-31">
          <mxGeometry y="86" width="190" height="26" as="geometry" />
        </mxCell>
        <mxCell id="IBlnAb1Y5OI588Di0hFC-35" value="&lt;div&gt;Produto&lt;/div&gt;" style="swimlane;fontStyle=1;align=center;verticalAlign=top;childLayout=stackLayout;horizontal=1;startSize=26;horizontalStack=0;resizeParent=1;resizeParentMax=0;resizeLast=0;collapsible=1;marginBottom=0;whiteSpace=wrap;html=1;fillColor=light-dark(#A20025,#E6D0DE);fontColor=#ffffff;strokeColor=#6F0000;" vertex="1" parent="1">
          <mxGeometry x="916" y="137" width="190" height="112" as="geometry" />
        </mxCell>
        <mxCell id="IBlnAb1Y5OI588Di0hFC-36" value="Nome: String" style="text;strokeColor=none;fillColor=none;align=left;verticalAlign=top;spacingLeft=4;spacingRight=4;overflow=hidden;rotatable=0;points=[[0,0.5],[1,0.5]];portConstraint=eastwest;whiteSpace=wrap;html=1;" vertex="1" parent="IBlnAb1Y5OI588Di0hFC-35">
          <mxGeometry y="26" width="190" height="26" as="geometry" />
        </mxCell>
        <mxCell id="IBlnAb1Y5OI588Di0hFC-101" value="Preço: Int" style="text;strokeColor=none;fillColor=none;align=left;verticalAlign=top;spacingLeft=4;spacingRight=4;overflow=hidden;rotatable=0;points=[[0,0.5],[1,0.5]];portConstraint=eastwest;whiteSpace=wrap;html=1;" vertex="1" parent="IBlnAb1Y5OI588Di0hFC-35">
          <mxGeometry y="52" width="190" height="26" as="geometry" />
        </mxCell>
        <mxCell id="IBlnAb1Y5OI588Di0hFC-37" value="" style="line;strokeWidth=1;fillColor=none;align=left;verticalAlign=middle;spacingTop=-1;spacingLeft=3;spacingRight=3;rotatable=0;labelPosition=right;points=[];portConstraint=eastwest;strokeColor=inherit;" vertex="1" parent="IBlnAb1Y5OI588Di0hFC-35">
          <mxGeometry y="78" width="190" height="8" as="geometry" />
        </mxCell>
        <mxCell id="IBlnAb1Y5OI588Di0hFC-38" value="+ method(type): type" style="text;strokeColor=none;fillColor=none;align=left;verticalAlign=top;spacingLeft=4;spacingRight=4;overflow=hidden;rotatable=0;points=[[0,0.5],[1,0.5]];portConstraint=eastwest;whiteSpace=wrap;html=1;" vertex="1" parent="IBlnAb1Y5OI588Di0hFC-35">
          <mxGeometry y="86" width="190" height="26" as="geometry" />
        </mxCell>
        <mxCell id="IBlnAb1Y5OI588Di0hFC-39" value="&lt;div&gt;Pizza&lt;/div&gt;" style="swimlane;fontStyle=1;align=center;verticalAlign=top;childLayout=stackLayout;horizontal=1;startSize=26;horizontalStack=0;resizeParent=1;resizeParentMax=0;resizeLast=0;collapsible=1;marginBottom=0;whiteSpace=wrap;html=1;fillColor=light-dark(#A20025,#E6D0DE);fontColor=#ffffff;strokeColor=#6F0000;" vertex="1" parent="1">
          <mxGeometry x="746" y="380" width="190" height="86" as="geometry" />
        </mxCell>
        <mxCell id="IBlnAb1Y5OI588Di0hFC-40" value="Nome: String" style="text;strokeColor=none;fillColor=none;align=left;verticalAlign=top;spacingLeft=4;spacingRight=4;overflow=hidden;rotatable=0;points=[[0,0.5],[1,0.5]];portConstraint=eastwest;whiteSpace=wrap;html=1;" vertex="1" parent="IBlnAb1Y5OI588Di0hFC-39">
          <mxGeometry y="26" width="190" height="26" as="geometry" />
        </mxCell>
        <mxCell id="IBlnAb1Y5OI588Di0hFC-41" value="" style="line;strokeWidth=1;fillColor=none;align=left;verticalAlign=middle;spacingTop=-1;spacingLeft=3;spacingRight=3;rotatable=0;labelPosition=right;points=[];portConstraint=eastwest;strokeColor=inherit;" vertex="1" parent="IBlnAb1Y5OI588Di0hFC-39">
          <mxGeometry y="52" width="190" height="8" as="geometry" />
        </mxCell>
        <mxCell id="IBlnAb1Y5OI588Di0hFC-42" value="+ method(type): type" style="text;strokeColor=none;fillColor=none;align=left;verticalAlign=top;spacingLeft=4;spacingRight=4;overflow=hidden;rotatable=0;points=[[0,0.5],[1,0.5]];portConstraint=eastwest;whiteSpace=wrap;html=1;" vertex="1" parent="IBlnAb1Y5OI588Di0hFC-39">
          <mxGeometry y="60" width="190" height="26" as="geometry" />
        </mxCell>
        <mxCell id="IBlnAb1Y5OI588Di0hFC-43" value="&lt;div&gt;Bebidas&lt;/div&gt;" style="swimlane;fontStyle=1;align=center;verticalAlign=top;childLayout=stackLayout;horizontal=1;startSize=26;horizontalStack=0;resizeParent=1;resizeParentMax=0;resizeLast=0;collapsible=1;marginBottom=0;whiteSpace=wrap;html=1;fillColor=light-dark(#A20025,#CDA2BE);fontColor=#ffffff;strokeColor=#6F0000;" vertex="1" parent="1">
          <mxGeometry x="571" y="380" width="149" height="86" as="geometry" />
        </mxCell>
        <mxCell id="IBlnAb1Y5OI588Di0hFC-44" value="Nome: String" style="text;strokeColor=none;fillColor=none;align=left;verticalAlign=top;spacingLeft=4;spacingRight=4;overflow=hidden;rotatable=0;points=[[0,0.5],[1,0.5]];portConstraint=eastwest;whiteSpace=wrap;html=1;" vertex="1" parent="IBlnAb1Y5OI588Di0hFC-43">
          <mxGeometry y="26" width="149" height="26" as="geometry" />
        </mxCell>
        <mxCell id="IBlnAb1Y5OI588Di0hFC-45" value="" style="line;strokeWidth=1;fillColor=none;align=left;verticalAlign=middle;spacingTop=-1;spacingLeft=3;spacingRight=3;rotatable=0;labelPosition=right;points=[];portConstraint=eastwest;strokeColor=inherit;" vertex="1" parent="IBlnAb1Y5OI588Di0hFC-43">
          <mxGeometry y="52" width="149" height="8" as="geometry" />
        </mxCell>
        <mxCell id="IBlnAb1Y5OI588Di0hFC-46" value="+ method(type): type" style="text;strokeColor=none;fillColor=none;align=left;verticalAlign=top;spacingLeft=4;spacingRight=4;overflow=hidden;rotatable=0;points=[[0,0.5],[1,0.5]];portConstraint=eastwest;whiteSpace=wrap;html=1;" vertex="1" parent="IBlnAb1Y5OI588Di0hFC-43">
          <mxGeometry y="60" width="149" height="26" as="geometry" />
        </mxCell>
        <mxCell id="IBlnAb1Y5OI588Di0hFC-47" value="&lt;div&gt;Sobremesa&lt;/div&gt;" style="swimlane;fontStyle=1;align=center;verticalAlign=top;childLayout=stackLayout;horizontal=1;startSize=26;horizontalStack=0;resizeParent=1;resizeParentMax=0;resizeLast=0;collapsible=1;marginBottom=0;whiteSpace=wrap;html=1;fillColor=light-dark(#A20025,#B5739D);fontColor=#ffffff;strokeColor=#6F0000;" vertex="1" parent="1">
          <mxGeometry x="976" y="380" width="165" height="92" as="geometry" />
        </mxCell>
        <mxCell id="IBlnAb1Y5OI588Di0hFC-48" value="Nome: String" style="text;strokeColor=none;fillColor=none;align=left;verticalAlign=top;spacingLeft=4;spacingRight=4;overflow=hidden;rotatable=0;points=[[0,0.5],[1,0.5]];portConstraint=eastwest;whiteSpace=wrap;html=1;" vertex="1" parent="IBlnAb1Y5OI588Di0hFC-47">
          <mxGeometry y="26" width="165" height="32" as="geometry" />
        </mxCell>
        <mxCell id="IBlnAb1Y5OI588Di0hFC-49" value="" style="line;strokeWidth=1;fillColor=none;align=left;verticalAlign=middle;spacingTop=-1;spacingLeft=3;spacingRight=3;rotatable=0;labelPosition=right;points=[];portConstraint=eastwest;strokeColor=inherit;" vertex="1" parent="IBlnAb1Y5OI588Di0hFC-47">
          <mxGeometry y="58" width="165" height="8" as="geometry" />
        </mxCell>
        <mxCell id="IBlnAb1Y5OI588Di0hFC-50" value="+ method(type): type" style="text;strokeColor=none;fillColor=none;align=left;verticalAlign=top;spacingLeft=4;spacingRight=4;overflow=hidden;rotatable=0;points=[[0,0.5],[1,0.5]];portConstraint=eastwest;whiteSpace=wrap;html=1;" vertex="1" parent="IBlnAb1Y5OI588Di0hFC-47">
          <mxGeometry y="66" width="165" height="26" as="geometry" />
        </mxCell>
        <mxCell id="IBlnAb1Y5OI588Di0hFC-94" style="edgeStyle=orthogonalEdgeStyle;rounded=0;orthogonalLoop=1;jettySize=auto;html=1;exitX=0.5;exitY=0;exitDx=0;exitDy=0;endArrow=diamondThin;endFill=1;" edge="1" parent="1" source="IBlnAb1Y5OI588Di0hFC-51" target="IBlnAb1Y5OI588Di0hFC-39">
          <mxGeometry relative="1" as="geometry" />
        </mxCell>
        <mxCell id="IBlnAb1Y5OI588Di0hFC-51" value="&lt;div&gt;Sabores&lt;/div&gt;" style="swimlane;fontStyle=1;align=center;verticalAlign=top;childLayout=stackLayout;horizontal=1;startSize=26;horizontalStack=0;resizeParent=1;resizeParentMax=0;resizeLast=0;collapsible=1;marginBottom=0;whiteSpace=wrap;html=1;fillColor=light-dark(#A20025,#E6D0DE);fontColor=#ffffff;strokeColor=#6F0000;" vertex="1" parent="1">
          <mxGeometry x="746" y="599" width="190" height="86" as="geometry" />
        </mxCell>
        <mxCell id="IBlnAb1Y5OI588Di0hFC-52" value="Nome: String" style="text;strokeColor=none;fillColor=none;align=left;verticalAlign=top;spacingLeft=4;spacingRight=4;overflow=hidden;rotatable=0;points=[[0,0.5],[1,0.5]];portConstraint=eastwest;whiteSpace=wrap;html=1;" vertex="1" parent="IBlnAb1Y5OI588Di0hFC-51">
          <mxGeometry y="26" width="190" height="26" as="geometry" />
        </mxCell>
        <mxCell id="IBlnAb1Y5OI588Di0hFC-53" value="" style="line;strokeWidth=1;fillColor=none;align=left;verticalAlign=middle;spacingTop=-1;spacingLeft=3;spacingRight=3;rotatable=0;labelPosition=right;points=[];portConstraint=eastwest;strokeColor=inherit;" vertex="1" parent="IBlnAb1Y5OI588Di0hFC-51">
          <mxGeometry y="52" width="190" height="8" as="geometry" />
        </mxCell>
        <mxCell id="IBlnAb1Y5OI588Di0hFC-54" value="+ method(type): type" style="text;strokeColor=none;fillColor=none;align=left;verticalAlign=top;spacingLeft=4;spacingRight=4;overflow=hidden;rotatable=0;points=[[0,0.5],[1,0.5]];portConstraint=eastwest;whiteSpace=wrap;html=1;" vertex="1" parent="IBlnAb1Y5OI588Di0hFC-51">
          <mxGeometry y="60" width="190" height="26" as="geometry" />
        </mxCell>
        <mxCell id="IBlnAb1Y5OI588Di0hFC-56" value="Item_Pedido" style="swimlane;fontStyle=1;align=center;verticalAlign=top;childLayout=stackLayout;horizontal=1;startSize=26;horizontalStack=0;resizeParent=1;resizeParentMax=0;resizeLast=0;collapsible=1;marginBottom=0;whiteSpace=wrap;html=1;fillColor=light-dark(#008A00,#CCFFE6);fontColor=#ffffff;strokeColor=#005700;" vertex="1" parent="1">
          <mxGeometry x="580" y="137" width="190" height="86" as="geometry" />
        </mxCell>
        <mxCell id="IBlnAb1Y5OI588Di0hFC-57" value="Quantidade: Int" style="text;strokeColor=none;fillColor=none;align=left;verticalAlign=top;spacingLeft=4;spacingRight=4;overflow=hidden;rotatable=0;points=[[0,0.5],[1,0.5]];portConstraint=eastwest;whiteSpace=wrap;html=1;" vertex="1" parent="IBlnAb1Y5OI588Di0hFC-56">
          <mxGeometry y="26" width="190" height="26" as="geometry" />
        </mxCell>
        <mxCell id="IBlnAb1Y5OI588Di0hFC-58" value="" style="line;strokeWidth=1;fillColor=none;align=left;verticalAlign=middle;spacingTop=-1;spacingLeft=3;spacingRight=3;rotatable=0;labelPosition=right;points=[];portConstraint=eastwest;strokeColor=inherit;" vertex="1" parent="IBlnAb1Y5OI588Di0hFC-56">
          <mxGeometry y="52" width="190" height="8" as="geometry" />
        </mxCell>
        <mxCell id="IBlnAb1Y5OI588Di0hFC-59" value="+ method(type): type" style="text;strokeColor=none;fillColor=none;align=left;verticalAlign=top;spacingLeft=4;spacingRight=4;overflow=hidden;rotatable=0;points=[[0,0.5],[1,0.5]];portConstraint=eastwest;whiteSpace=wrap;html=1;" vertex="1" parent="IBlnAb1Y5OI588Di0hFC-56">
          <mxGeometry y="60" width="190" height="26" as="geometry" />
        </mxCell>
        <mxCell id="IBlnAb1Y5OI588Di0hFC-95" style="edgeStyle=orthogonalEdgeStyle;rounded=0;orthogonalLoop=1;jettySize=auto;html=1;exitX=0.5;exitY=0;exitDx=0;exitDy=0;endArrow=diamondThin;endFill=0;" edge="1" parent="1" source="IBlnAb1Y5OI588Di0hFC-60" target="IBlnAb1Y5OI588Di0hFC-43">
          <mxGeometry relative="1" as="geometry" />
        </mxCell>
        <mxCell id="IBlnAb1Y5OI588Di0hFC-97" style="edgeStyle=orthogonalEdgeStyle;rounded=0;orthogonalLoop=1;jettySize=auto;html=1;exitX=1;exitY=0.5;exitDx=0;exitDy=0;entryX=1;entryY=0.5;entryDx=0;entryDy=0;endArrow=diamondThin;endFill=1;" edge="1" parent="1" source="IBlnAb1Y5OI588Di0hFC-60" target="IBlnAb1Y5OI588Di0hFC-48">
          <mxGeometry relative="1" as="geometry" />
        </mxCell>
        <mxCell id="IBlnAb1Y5OI588Di0hFC-100" style="edgeStyle=orthogonalEdgeStyle;rounded=0;orthogonalLoop=1;jettySize=auto;html=1;exitX=1;exitY=0.25;exitDx=0;exitDy=0;endArrow=diamond;endFill=0;" edge="1" parent="1" source="IBlnAb1Y5OI588Di0hFC-60" target="IBlnAb1Y5OI588Di0hFC-64">
          <mxGeometry relative="1" as="geometry" />
        </mxCell>
        <mxCell id="IBlnAb1Y5OI588Di0hFC-60" value="&lt;div&gt;Estoque&lt;/div&gt;" style="swimlane;fontStyle=1;align=center;verticalAlign=top;childLayout=stackLayout;horizontal=1;startSize=26;horizontalStack=0;resizeParent=1;resizeParentMax=0;resizeLast=0;collapsible=1;marginBottom=0;whiteSpace=wrap;html=1;fillColor=light-dark(#A20025,#E6D0DE);fontColor=#ffffff;strokeColor=#6F0000;" vertex="1" parent="1">
          <mxGeometry x="570" y="700" width="150" height="112" as="geometry" />
        </mxCell>
        <mxCell id="IBlnAb1Y5OI588Di0hFC-116" value="Quantidade: Int" style="text;strokeColor=none;fillColor=none;align=left;verticalAlign=top;spacingLeft=4;spacingRight=4;overflow=hidden;rotatable=0;points=[[0,0.5],[1,0.5]];portConstraint=eastwest;whiteSpace=wrap;html=1;" vertex="1" parent="IBlnAb1Y5OI588Di0hFC-60">
          <mxGeometry y="26" width="150" height="26" as="geometry" />
        </mxCell>
        <mxCell id="IBlnAb1Y5OI588Di0hFC-61" value="Nome: String" style="text;strokeColor=none;fillColor=none;align=left;verticalAlign=top;spacingLeft=4;spacingRight=4;overflow=hidden;rotatable=0;points=[[0,0.5],[1,0.5]];portConstraint=eastwest;whiteSpace=wrap;html=1;" vertex="1" parent="IBlnAb1Y5OI588Di0hFC-60">
          <mxGeometry y="52" width="150" height="26" as="geometry" />
        </mxCell>
        <mxCell id="IBlnAb1Y5OI588Di0hFC-62" value="" style="line;strokeWidth=1;fillColor=none;align=left;verticalAlign=middle;spacingTop=-1;spacingLeft=3;spacingRight=3;rotatable=0;labelPosition=right;points=[];portConstraint=eastwest;strokeColor=inherit;" vertex="1" parent="IBlnAb1Y5OI588Di0hFC-60">
          <mxGeometry y="78" width="150" height="8" as="geometry" />
        </mxCell>
        <mxCell id="IBlnAb1Y5OI588Di0hFC-63" value="+ method(type): type" style="text;strokeColor=none;fillColor=none;align=left;verticalAlign=top;spacingLeft=4;spacingRight=4;overflow=hidden;rotatable=0;points=[[0,0.5],[1,0.5]];portConstraint=eastwest;whiteSpace=wrap;html=1;" vertex="1" parent="IBlnAb1Y5OI588Di0hFC-60">
          <mxGeometry y="86" width="150" height="26" as="geometry" />
        </mxCell>
        <mxCell id="IBlnAb1Y5OI588Di0hFC-64" value="&lt;div&gt;Ingredientes&lt;/div&gt;" style="swimlane;fontStyle=1;align=center;verticalAlign=top;childLayout=stackLayout;horizontal=1;startSize=26;horizontalStack=0;resizeParent=1;resizeParentMax=0;resizeLast=0;collapsible=1;marginBottom=0;whiteSpace=wrap;html=1;fillColor=light-dark(#A20025,#E6D0DE);fontColor=#ffffff;strokeColor=#6F0000;" vertex="1" parent="1">
          <mxGeometry x="976" y="603" width="165" height="86" as="geometry" />
        </mxCell>
        <mxCell id="IBlnAb1Y5OI588Di0hFC-65" value="Nome: String" style="text;strokeColor=none;fillColor=none;align=left;verticalAlign=top;spacingLeft=4;spacingRight=4;overflow=hidden;rotatable=0;points=[[0,0.5],[1,0.5]];portConstraint=eastwest;whiteSpace=wrap;html=1;" vertex="1" parent="IBlnAb1Y5OI588Di0hFC-64">
          <mxGeometry y="26" width="165" height="26" as="geometry" />
        </mxCell>
        <mxCell id="IBlnAb1Y5OI588Di0hFC-66" value="" style="line;strokeWidth=1;fillColor=none;align=left;verticalAlign=middle;spacingTop=-1;spacingLeft=3;spacingRight=3;rotatable=0;labelPosition=right;points=[];portConstraint=eastwest;strokeColor=inherit;" vertex="1" parent="IBlnAb1Y5OI588Di0hFC-64">
          <mxGeometry y="52" width="165" height="8" as="geometry" />
        </mxCell>
        <mxCell id="IBlnAb1Y5OI588Di0hFC-67" value="+ method(type): type" style="text;strokeColor=none;fillColor=none;align=left;verticalAlign=top;spacingLeft=4;spacingRight=4;overflow=hidden;rotatable=0;points=[[0,0.5],[1,0.5]];portConstraint=eastwest;whiteSpace=wrap;html=1;" vertex="1" parent="IBlnAb1Y5OI588Di0hFC-64">
          <mxGeometry y="60" width="165" height="26" as="geometry" />
        </mxCell>
        <mxCell id="IBlnAb1Y5OI588Di0hFC-81" value="*" style="text;html=1;align=center;verticalAlign=middle;resizable=0;points=[];autosize=1;strokeColor=none;fillColor=none;" vertex="1" parent="1">
          <mxGeometry x="200" y="110" width="30" height="30" as="geometry" />
        </mxCell>
        <mxCell id="IBlnAb1Y5OI588Di0hFC-84" value="*" style="text;html=1;align=center;verticalAlign=middle;resizable=0;points=[];autosize=1;strokeColor=none;fillColor=none;" vertex="1" parent="1">
          <mxGeometry x="420.73" y="380" width="30" height="30" as="geometry" />
        </mxCell>
        <mxCell id="IBlnAb1Y5OI588Di0hFC-85" style="edgeStyle=orthogonalEdgeStyle;rounded=0;orthogonalLoop=1;jettySize=auto;html=1;exitX=0;exitY=0.5;exitDx=0;exitDy=0;entryX=1;entryY=0.5;entryDx=0;entryDy=0;endArrow=diamondThin;endFill=1;" edge="1" parent="1" source="IBlnAb1Y5OI588Di0hFC-57" target="IBlnAb1Y5OI588Di0hFC-11">
          <mxGeometry relative="1" as="geometry" />
        </mxCell>
        <mxCell id="IBlnAb1Y5OI588Di0hFC-87" style="edgeStyle=orthogonalEdgeStyle;rounded=0;orthogonalLoop=1;jettySize=auto;html=1;exitX=0.5;exitY=0;exitDx=0;exitDy=0;entryX=0.492;entryY=0.968;entryDx=0;entryDy=0;entryPerimeter=0;" edge="1" parent="1" source="IBlnAb1Y5OI588Di0hFC-47" target="IBlnAb1Y5OI588Di0hFC-38">
          <mxGeometry relative="1" as="geometry" />
        </mxCell>
        <mxCell id="IBlnAb1Y5OI588Di0hFC-88" style="edgeStyle=orthogonalEdgeStyle;rounded=0;orthogonalLoop=1;jettySize=auto;html=1;exitX=0.5;exitY=0;exitDx=0;exitDy=0;entryX=0.489;entryY=0.968;entryDx=0;entryDy=0;entryPerimeter=0;" edge="1" parent="1" source="IBlnAb1Y5OI588Di0hFC-39" target="IBlnAb1Y5OI588Di0hFC-38">
          <mxGeometry relative="1" as="geometry" />
        </mxCell>
        <mxCell id="IBlnAb1Y5OI588Di0hFC-89" style="edgeStyle=orthogonalEdgeStyle;rounded=0;orthogonalLoop=1;jettySize=auto;html=1;exitX=0.5;exitY=0;exitDx=0;exitDy=0;entryX=0.492;entryY=0.968;entryDx=0;entryDy=0;entryPerimeter=0;" edge="1" parent="1" source="IBlnAb1Y5OI588Di0hFC-43" target="IBlnAb1Y5OI588Di0hFC-38">
          <mxGeometry relative="1" as="geometry" />
        </mxCell>
        <mxCell id="IBlnAb1Y5OI588Di0hFC-90" value="" style="endArrow=none;html=1;edgeStyle=orthogonalEdgeStyle;rounded=0;entryX=0;entryY=0.5;entryDx=0;entryDy=0;" edge="1" parent="1" source="IBlnAb1Y5OI588Di0hFC-57" target="IBlnAb1Y5OI588Di0hFC-36">
          <mxGeometry relative="1" as="geometry">
            <mxPoint x="830" y="191" as="sourcePoint" />
            <mxPoint x="910" y="176" as="targetPoint" />
          </mxGeometry>
        </mxCell>
        <mxCell id="IBlnAb1Y5OI588Di0hFC-91" value="parent" style="edgeLabel;resizable=0;html=1;align=left;verticalAlign=bottom;" connectable="0" vertex="1" parent="IBlnAb1Y5OI588Di0hFC-90">
          <mxGeometry x="-1" relative="1" as="geometry" />
        </mxCell>
        <mxCell id="IBlnAb1Y5OI588Di0hFC-92" value="child" style="edgeLabel;resizable=0;html=1;align=right;verticalAlign=bottom;" connectable="0" vertex="1" parent="IBlnAb1Y5OI588Di0hFC-90">
          <mxGeometry x="1" relative="1" as="geometry" />
        </mxCell>
        <mxCell id="IBlnAb1Y5OI588Di0hFC-99" style="edgeStyle=orthogonalEdgeStyle;rounded=0;orthogonalLoop=1;jettySize=auto;html=1;exitX=0;exitY=0.5;exitDx=0;exitDy=0;endArrow=none;startFill=0;" edge="1" parent="1" source="IBlnAb1Y5OI588Di0hFC-65" target="IBlnAb1Y5OI588Di0hFC-51">
          <mxGeometry relative="1" as="geometry">
            <mxPoint x="931" y="642.0000000000002" as="targetPoint" />
          </mxGeometry>
        </mxCell>
        <mxCell id="IBlnAb1Y5OI588Di0hFC-107" value="" style="edgeStyle=orthogonalEdgeStyle;rounded=0;orthogonalLoop=1;jettySize=auto;html=1;exitX=0.5;exitY=0;exitDx=0;exitDy=0;endArrow=none;startFill=0;entryX=0.538;entryY=1.035;entryDx=0;entryDy=0;entryPerimeter=0;" edge="1" parent="1" source="IBlnAb1Y5OI588Di0hFC-31" target="IBlnAb1Y5OI588Di0hFC-16">
          <mxGeometry relative="1" as="geometry">
            <mxPoint x="414.73" y="470" as="sourcePoint" />
            <mxPoint x="425.73" y="441" as="targetPoint" />
          </mxGeometry>
        </mxCell>
        <mxCell id="IBlnAb1Y5OI588Di0hFC-109" value="1" style="text;html=1;align=center;verticalAlign=middle;resizable=0;points=[];autosize=1;strokeColor=none;fillColor=none;" vertex="1" parent="1">
          <mxGeometry x="420.73" y="460" width="30" height="30" as="geometry" />
        </mxCell>
        <mxCell id="IBlnAb1Y5OI588Di0hFC-111" value="0.n" style="text;html=1;align=center;verticalAlign=middle;resizable=0;points=[];autosize=1;strokeColor=none;fillColor=none;" vertex="1" parent="1">
          <mxGeometry x="629" y="466" width="40" height="30" as="geometry" />
        </mxCell>
        <mxCell id="IBlnAb1Y5OI588Di0hFC-112" value="0.n" style="text;html=1;align=center;verticalAlign=middle;resizable=0;points=[];autosize=1;strokeColor=none;fillColor=none;" vertex="1" parent="1">
          <mxGeometry x="1129" y="399" width="40" height="30" as="geometry" />
        </mxCell>
        <mxCell id="IBlnAb1Y5OI588Di0hFC-113" value="*" style="text;html=1;align=center;verticalAlign=middle;resizable=0;points=[];autosize=1;strokeColor=none;fillColor=none;" vertex="1" parent="1">
          <mxGeometry x="1075" y="700" width="30" height="30" as="geometry" />
        </mxCell>
        <mxCell id="IBlnAb1Y5OI588Di0hFC-114" value="*" style="text;html=1;align=center;verticalAlign=middle;resizable=0;points=[];autosize=1;strokeColor=none;fillColor=none;" vertex="1" parent="1">
          <mxGeometry x="956" y="620" width="30" height="30" as="geometry" />
        </mxCell>
        <mxCell id="IBlnAb1Y5OI588Di0hFC-115" value="*" style="text;html=1;align=center;verticalAlign=middle;resizable=0;points=[];autosize=1;strokeColor=none;fillColor=none;" vertex="1" parent="1">
          <mxGeometry x="926" y="620" width="30" height="30" as="geometry" />
        </mxCell>
      </root>
    </mxGraphModel>
  </diagram>
</mxfile>
